<svg viewBox="329.3446 507.2509 899.311 393.1284" width="5000" height="2185.7199567224243" xmlns="http://www.w3.org/2000/svg" xmlns:xlink="http://www.w3.org/1999/xlink" preserveAspectRatio="none"><defs></defs><style>.a6izo4zJpcolor {fill:#F1A5CF;fill-opacity:1;}.a6izo4zJpstrokeColor-str {stroke:#D7ED5F;stroke-opacity:1;}.aD6z1nYkhcolor {fill:#7EC4DB;fill-opacity:1;}.aD6z1nYkhstrokeColor-str {stroke:#D7ED5F;stroke-opacity:1;}.aLgOaV3zRcolors-0 {fill:#7EC4DB;fill-opacity:1;}.aLgOaV3zRcolors-1 {fill:#F1A5CF;fill-opacity:1;}.aLgOaV3zRcolors-2 {fill:#FEFFF3;fill-opacity:1;}</style><g opacity="1" transform="rotate(0 378.6027 877.3793)">
<svg width="800.7948" height="23" x="378.6027" y="877.3793" version="1.1" preserveAspectRatio="none" viewBox="3.48 -29.46 1279.74 36.76">
  <g transform="matrix(1 0 0 1 0 0)" class="a6izo4zJpcolor"><path id="id-6izo4zJp61" d="M3.48-28.66L21.14-28.66L21.14-25.50L7.38-25.50L7.38-15.98L18.52-15.98L18.52-12.94L7.38-12.94L7.38-3.16L21.14-3.16L21.14 0L3.48 0L3.48-28.66Z M30.56-29.46L34.12-29.46L34.12 0L30.56 0L30.56-29.46Z M52.42-20.58L52.42-20.58Q54.24-20.58 55.78-19.97Q57.32-19.36 58.44-18.21Q59.56-17.06 60.19-15.37Q60.82-13.68 60.82-11.52L60.82-11.52Q60.82-10.68 60.64-10.40Q60.46-10.12 59.96-10.12L59.96-10.12L46.48-10.12Q46.52-8.20 47.00-6.78Q47.48-5.36 48.32-4.41Q49.16-3.46 50.32-2.99Q51.48-2.52 52.92-2.52L52.92-2.52Q54.26-2.52 55.23-2.83Q56.20-3.14 56.90-3.50Q57.60-3.86 58.07-4.17Q58.54-4.48 58.88-4.48L58.88-4.48Q59.32-4.48 59.56-4.14L59.56-4.14L60.56-2.84Q59.90-2.04 58.98-1.45Q58.06-0.86 57.01-0.48Q55.96-0.10 54.84 0.09Q53.72 0.28 52.62 0.28L52.62 0.28Q50.52 0.28 48.75-0.43Q46.98-1.14 45.69-2.51Q44.40-3.88 43.68-5.90Q42.96-7.92 42.96-10.54L42.96-10.54Q42.96-12.66 43.61-14.50Q44.26-16.34 45.48-17.69Q46.70-19.04 48.46-19.81Q50.22-20.58 52.42-20.58ZM52.50-17.96L52.50-17.96Q49.92-17.96 48.44-16.47Q46.96-14.98 46.60-12.34L46.60-12.34L57.62-12.34Q57.62-13.58 57.28-14.61Q56.94-15.64 56.28-16.39Q55.62-17.14 54.67-17.55Q53.72-17.96 52.50-17.96Z M74.54 0L66.28-20.26L69.20-20.26Q69.62-20.26 69.90-20.04Q70.18-19.82 70.30-19.52L70.30-19.52L75.44-6.48Q75.72-5.76 75.88-5.04Q76.04-4.32 76.18-3.62L76.18-3.62Q76.34-4.32 76.52-5.04Q76.70-5.76 76.98-6.48L76.98-6.48L82.18-19.52Q82.30-19.84 82.57-20.05Q82.84-20.26 83.24-20.26L83.24-20.26L86.02-20.26L77.76 0L74.54 0Z M108.20-12.96L108.20 0L106.62 0Q106.10 0 105.78-0.16Q105.46-0.32 105.36-0.84L105.36-0.84L104.96-2.72Q104.16-2 103.40-1.43Q102.64-0.86 101.80-0.47Q100.96-0.08 100.01 0.12Q99.06 0.32 97.90 0.32L97.90 0.32Q96.72 0.32 95.69-0.01Q94.66-0.34 93.90-1Q93.14-1.66 92.69-2.67Q92.24-3.68 92.24-5.06L92.24-5.06Q92.24-6.26 92.90-7.37Q93.56-8.48 95.03-9.34Q96.50-10.20 98.88-10.75Q101.26-11.30 104.70-11.38L104.70-11.38L104.70-12.96Q104.70-15.32 103.69-16.53Q102.68-17.74 100.70-17.74L100.70-17.74Q99.40-17.74 98.51-17.41Q97.62-17.08 96.97-16.67Q96.32-16.26 95.85-15.93Q95.38-15.60 94.92-15.60L94.92-15.60Q94.56-15.60 94.29-15.79Q94.02-15.98 93.86-16.26L93.86-16.26L93.22-17.40Q94.90-19.02 96.84-19.82Q98.78-20.62 101.14-20.62L101.14-20.62Q102.84-20.62 104.16-20.06Q105.48-19.50 106.38-18.50Q107.28-17.50 107.74-16.08Q108.20-14.66 108.20-12.96L108.20-12.96ZM98.96-2.18L98.96-2.18Q99.90-2.18 100.68-2.37Q101.46-2.56 102.15-2.91Q102.84-3.26 103.47-3.76Q104.10-4.26 104.70-4.90L104.70-4.90L104.70-9.12Q102.24-9.04 100.52-8.73Q98.80-8.42 97.72-7.92Q96.64-7.42 96.15-6.74Q95.66-6.06 95.66-5.22L95.66-5.22Q95.66-4.42 95.92-3.84Q96.18-3.26 96.62-2.89Q97.06-2.52 97.66-2.35Q98.26-2.18 98.96-2.18Z M123.74 0.32L123.74 0.32Q121.34 0.32 120.05-1.02Q118.76-2.36 118.76-4.88L118.76-4.88L118.76-17.28L116.32-17.28Q116-17.28 115.78-17.47Q115.56-17.66 115.56-18.06L115.56-18.06L115.56-19.48L118.88-19.90L119.70-26.16Q119.74-26.46 119.96-26.65Q120.18-26.84 120.52-26.84L120.52-26.84L122.32-26.84L122.32-19.86L128.12-19.86L128.12-17.28L122.32-17.28L122.32-5.12Q122.32-3.84 122.94-3.22Q123.56-2.60 124.54-2.60L124.54-2.60Q125.10-2.60 125.51-2.75Q125.92-2.90 126.22-3.08Q126.52-3.26 126.73-3.41Q126.94-3.56 127.10-3.56L127.10-3.56Q127.38-3.56 127.60-3.22L127.60-3.22L128.64-1.52Q127.72-0.66 126.42-0.17Q125.12 0.32 123.74 0.32Z M144.54-20.58L144.54-20.58Q146.36-20.58 147.90-19.97Q149.44-19.36 150.56-18.21Q151.68-17.06 152.31-15.37Q152.94-13.68 152.94-11.52L152.94-11.52Q152.94-10.68 152.76-10.40Q152.58-10.12 152.08-10.12L152.08-10.12L138.60-10.12Q138.64-8.20 139.12-6.78Q139.60-5.36 140.44-4.41Q141.28-3.46 142.44-2.99Q143.60-2.52 145.04-2.52L145.04-2.52Q146.38-2.52 147.35-2.83Q148.32-3.14 149.02-3.50Q149.72-3.86 150.19-4.17Q150.66-4.48 151-4.48L151-4.48Q151.44-4.48 151.68-4.14L151.68-4.14L152.68-2.84Q152.02-2.04 151.10-1.45Q150.18-0.86 149.13-0.48Q148.08-0.10 146.96 0.09Q145.84 0.28 144.74 0.28L144.74 0.28Q142.64 0.28 140.87-0.43Q139.10-1.14 137.81-2.51Q136.52-3.88 135.80-5.90Q135.08-7.92 135.08-10.54L135.08-10.54Q135.08-12.66 135.73-14.50Q136.38-16.34 137.60-17.69Q138.82-19.04 140.58-19.81Q142.34-20.58 144.54-20.58ZM144.62-17.96L144.62-17.96Q142.04-17.96 140.56-16.47Q139.08-14.98 138.72-12.34L138.72-12.34L149.74-12.34Q149.74-13.58 149.40-14.61Q149.06-15.64 148.40-16.39Q147.74-17.14 146.79-17.55Q145.84-17.96 144.62-17.96Z M177.86 0L175.74 0Q174.98 0 174.78-0.74L174.78-0.74L174.46-3.20Q173.16-1.62 171.49-0.67Q169.82 0.28 167.66 0.28L167.66 0.28Q165.92 0.28 164.50-0.39Q163.08-1.06 162.08-2.36Q161.08-3.66 160.54-5.60Q160-7.54 160-10.06L160-10.06Q160-12.30 160.60-14.23Q161.20-16.16 162.33-17.58Q163.46-19 165.08-19.81Q166.70-20.62 168.76-20.62L168.76-20.62Q170.62-20.62 171.94-19.99Q173.26-19.36 174.30-18.22L174.30-18.22L174.30-29.46L177.86-29.46L177.86 0ZM168.84-2.60L168.84-2.60Q170.58-2.60 171.89-3.40Q173.20-4.20 174.30-5.66L174.30-5.66L174.30-15.46Q173.32-16.78 172.15-17.31Q170.98-17.84 169.56-17.84L169.56-17.84Q166.72-17.84 165.20-15.82Q163.68-13.80 163.68-10.06L163.68-10.06Q163.68-8.08 164.02-6.67Q164.36-5.26 165.02-4.35Q165.68-3.44 166.64-3.02Q167.60-2.60 168.84-2.60Z M214.44-12.96L214.44 0L212.86 0Q212.34 0 212.02-0.16Q211.70-0.32 211.60-0.84L211.60-0.84L211.20-2.72Q210.40-2 209.64-1.43Q208.88-0.86 208.04-0.47Q207.20-0.08 206.25 0.12Q205.30 0.32 204.14 0.32L204.14 0.32Q202.96 0.32 201.93-0.01Q200.90-0.34 200.14-1Q199.38-1.66 198.93-2.67Q198.48-3.68 198.48-5.06L198.48-5.06Q198.48-6.26 199.14-7.37Q199.80-8.48 201.27-9.34Q202.74-10.20 205.12-10.75Q207.50-11.30 210.94-11.38L210.94-11.38L210.94-12.96Q210.94-15.32 209.93-16.53Q208.92-17.74 206.94-17.74L206.94-17.74Q205.64-17.74 204.75-17.41Q203.86-17.08 203.21-16.67Q202.56-16.26 202.09-15.93Q201.62-15.60 201.16-15.60L201.16-15.60Q200.80-15.60 200.53-15.79Q200.26-15.98 200.10-16.26L200.10-16.26L199.46-17.40Q201.14-19.02 203.08-19.82Q205.02-20.62 207.38-20.62L207.38-20.62Q209.08-20.62 210.40-20.06Q211.72-19.50 212.62-18.50Q213.52-17.50 213.98-16.08Q214.44-14.66 214.44-12.96L214.44-12.96ZM205.20-2.18L205.20-2.18Q206.14-2.18 206.92-2.37Q207.70-2.56 208.39-2.91Q209.08-3.26 209.71-3.76Q210.34-4.26 210.94-4.90L210.94-4.90L210.94-9.12Q208.48-9.04 206.76-8.73Q205.04-8.42 203.96-7.92Q202.88-7.42 202.39-6.74Q201.90-6.06 201.90-5.22L201.90-5.22Q201.90-4.42 202.16-3.84Q202.42-3.26 202.86-2.89Q203.30-2.52 203.90-2.35Q204.50-2.18 205.20-2.18Z M238.60-17.94L237.66-16.66Q237.50-16.44 237.34-16.32Q237.18-16.20 236.88-16.20L236.88-16.20Q236.58-16.20 236.23-16.45Q235.88-16.70 235.34-17Q234.80-17.30 234.03-17.55Q233.26-17.80 232.14-17.80L232.14-17.80Q230.66-17.80 229.52-17.27Q228.38-16.74 227.61-15.74Q226.84-14.74 226.45-13.32Q226.06-11.90 226.06-10.14L226.06-10.14Q226.06-8.30 226.48-6.87Q226.90-5.44 227.66-4.47Q228.42-3.50 229.51-2.99Q230.60-2.48 231.96-2.48L231.96-2.48Q233.26-2.48 234.10-2.79Q234.94-3.10 235.50-3.48Q236.06-3.86 236.42-4.17Q236.78-4.48 237.14-4.48L237.14-4.48Q237.60-4.48 237.82-4.14L237.82-4.14L238.82-2.84Q237.50-1.22 235.52-0.47Q233.54 0.28 231.34 0.28L231.34 0.28Q229.44 0.28 227.81-0.42Q226.18-1.12 224.98-2.45Q223.78-3.78 223.09-5.72Q222.40-7.66 222.40-10.14L222.40-10.14Q222.40-12.40 223.03-14.32Q223.66-16.24 224.87-17.63Q226.08-19.02 227.86-19.80Q229.64-20.58 231.94-20.58L231.94-20.58Q234.06-20.58 235.70-19.89Q237.34-19.20 238.60-17.94L238.60-17.94Z M261.28-17.94L260.34-16.66Q260.18-16.44 260.02-16.32Q259.86-16.20 259.56-16.20L259.56-16.20Q259.26-16.20 258.91-16.45Q258.56-16.70 258.02-17Q257.48-17.30 256.71-17.55Q255.94-17.80 254.82-17.80L254.82-17.80Q253.34-17.80 252.20-17.27Q251.06-16.74 250.29-15.74Q249.52-14.74 249.13-13.32Q248.74-11.90 248.74-10.14L248.74-10.14Q248.74-8.30 249.16-6.87Q249.58-5.44 250.34-4.47Q251.10-3.50 252.19-2.99Q253.28-2.48 254.64-2.48L254.64-2.48Q255.94-2.48 256.78-2.79Q257.62-3.10 258.18-3.48Q258.74-3.86 259.10-4.17Q259.46-4.48 259.82-4.48L259.82-4.48Q260.28-4.48 260.50-4.14L260.50-4.14L261.50-2.84Q260.18-1.22 258.20-0.47Q256.22 0.28 254.02 0.28L254.02 0.28Q252.12 0.28 250.49-0.42Q248.86-1.12 247.66-2.45Q246.46-3.78 245.77-5.72Q245.08-7.66 245.08-10.14L245.08-10.14Q245.08-12.40 245.71-14.32Q246.34-16.24 247.55-17.63Q248.76-19.02 250.54-19.80Q252.32-20.58 254.62-20.58L254.62-20.58Q256.74-20.58 258.38-19.89Q260.02-19.20 261.28-17.94L261.28-17.94Z M277.22-20.58L277.22-20.58Q279.04-20.58 280.58-19.97Q282.12-19.36 283.24-18.21Q284.36-17.06 284.99-15.37Q285.62-13.68 285.62-11.52L285.62-11.52Q285.62-10.68 285.44-10.40Q285.26-10.12 284.76-10.12L284.76-10.12L271.28-10.12Q271.32-8.20 271.80-6.78Q272.28-5.36 273.12-4.41Q273.96-3.46 275.12-2.99Q276.28-2.52 277.72-2.52L277.72-2.52Q279.06-2.52 280.03-2.83Q281.00-3.14 281.70-3.50Q282.40-3.86 282.87-4.17Q283.34-4.48 283.68-4.48L283.68-4.48Q284.12-4.48 284.36-4.14L284.36-4.14L285.36-2.84Q284.70-2.04 283.78-1.45Q282.86-0.86 281.81-0.48Q280.76-0.10 279.64 0.09Q278.52 0.28 277.42 0.28L277.42 0.28Q275.32 0.28 273.55-0.43Q271.78-1.14 270.49-2.51Q269.20-3.88 268.48-5.90Q267.76-7.92 267.76-10.54L267.76-10.54Q267.76-12.66 268.41-14.50Q269.06-16.34 270.28-17.69Q271.50-19.04 273.26-19.81Q275.02-20.58 277.22-20.58ZM277.30-17.96L277.30-17.96Q274.72-17.96 273.24-16.47Q271.76-14.98 271.40-12.34L271.40-12.34L282.42-12.34Q282.42-13.58 282.08-14.61Q281.74-15.64 281.08-16.39Q280.42-17.14 279.47-17.55Q278.52-17.96 277.30-17.96Z M306.56-18.22L305.76-16.92Q305.52-16.48 305.02-16.48L305.02-16.48Q304.72-16.48 304.34-16.70Q303.96-16.92 303.41-17.19Q302.86-17.46 302.10-17.69Q301.34-17.92 300.30-17.92L300.30-17.92Q299.40-17.92 298.68-17.69Q297.96-17.46 297.45-17.06Q296.94-16.66 296.67-16.13Q296.40-15.60 296.40-14.98L296.40-14.98Q296.40-14.20 296.85-13.68Q297.30-13.16 298.04-12.78Q298.78-12.40 299.72-12.11Q300.66-11.82 301.65-11.49Q302.64-11.16 303.58-10.76Q304.52-10.36 305.26-9.76Q306-9.16 306.45-8.29Q306.90-7.42 306.90-6.20L306.90-6.20Q306.90-4.80 306.40-3.61Q305.90-2.42 304.92-1.55Q303.94-0.68 302.52-0.18Q301.10 0.32 299.24 0.32L299.24 0.32Q297.12 0.32 295.40-0.37Q293.68-1.06 292.48-2.14L292.48-2.14L293.32-3.50Q293.48-3.76 293.70-3.90Q293.92-4.04 294.28-4.04L294.28-4.04Q294.64-4.04 295.04-3.76Q295.44-3.48 296.01-3.14Q296.58-2.80 297.39-2.52Q298.20-2.24 299.42-2.24L299.42-2.24Q300.46-2.24 301.24-2.51Q302.02-2.78 302.54-3.24Q303.06-3.70 303.31-4.30Q303.56-4.90 303.56-5.58L303.56-5.58Q303.56-6.42 303.11-6.97Q302.66-7.52 301.92-7.91Q301.18-8.30 300.23-8.59Q299.28-8.88 298.29-9.20Q297.30-9.52 296.35-9.93Q295.40-10.34 294.66-10.96Q293.92-11.58 293.47-12.49Q293.02-13.40 293.02-14.70L293.02-14.70Q293.02-15.86 293.50-16.93Q293.98-18 294.90-18.81Q295.82-19.62 297.16-20.10Q298.50-20.58 300.22-20.58L300.22-20.58Q302.22-20.58 303.81-19.95Q305.40-19.32 306.56-18.22L306.56-18.22Z M327.92-18.22L327.12-16.92Q326.88-16.48 326.38-16.48L326.38-16.48Q326.08-16.48 325.70-16.70Q325.32-16.92 324.77-17.19Q324.22-17.46 323.46-17.69Q322.70-17.92 321.66-17.92L321.66-17.92Q320.76-17.92 320.04-17.69Q319.32-17.46 318.81-17.06Q318.30-16.66 318.03-16.13Q317.76-15.60 317.76-14.98L317.76-14.98Q317.76-14.20 318.21-13.68Q318.66-13.16 319.40-12.78Q320.14-12.40 321.08-12.11Q322.02-11.82 323.01-11.49Q324-11.16 324.94-10.76Q325.88-10.36 326.62-9.76Q327.36-9.16 327.81-8.29Q328.26-7.42 328.26-6.20L328.26-6.20Q328.26-4.80 327.76-3.61Q327.26-2.42 326.28-1.55Q325.30-0.68 323.88-0.18Q322.46 0.32 320.60 0.32L320.60 0.32Q318.48 0.32 316.76-0.37Q315.04-1.06 313.84-2.14L313.84-2.14L314.68-3.50Q314.84-3.76 315.06-3.90Q315.28-4.04 315.64-4.04L315.64-4.04Q316-4.04 316.40-3.76Q316.80-3.48 317.37-3.14Q317.94-2.80 318.75-2.52Q319.56-2.24 320.78-2.24L320.78-2.24Q321.82-2.24 322.60-2.51Q323.38-2.78 323.90-3.24Q324.42-3.70 324.67-4.30Q324.92-4.90 324.92-5.58L324.92-5.58Q324.92-6.42 324.47-6.97Q324.02-7.52 323.28-7.91Q322.54-8.30 321.59-8.59Q320.64-8.88 319.65-9.20Q318.66-9.52 317.71-9.93Q316.76-10.34 316.02-10.96Q315.28-11.58 314.83-12.49Q314.38-13.40 314.38-14.70L314.38-14.70Q314.38-15.86 314.86-16.93Q315.34-18 316.26-18.81Q317.18-19.62 318.52-20.10Q319.86-20.58 321.58-20.58L321.58-20.58Q323.58-20.58 325.17-19.95Q326.76-19.32 327.92-18.22L327.92-18.22Z M354.74 0.32L354.74 0.32Q352.34 0.32 351.05-1.02Q349.76-2.36 349.76-4.88L349.76-4.88L349.76-17.28L347.32-17.28Q347.00-17.28 346.78-17.47Q346.56-17.66 346.56-18.06L346.56-18.06L346.56-19.48L349.88-19.90L350.70-26.16Q350.74-26.46 350.96-26.65Q351.18-26.84 351.52-26.84L351.52-26.84L353.32-26.84L353.32-19.86L359.12-19.86L359.12-17.28L353.32-17.28L353.32-5.12Q353.32-3.84 353.94-3.22Q354.56-2.60 355.54-2.60L355.54-2.60Q356.10-2.60 356.51-2.75Q356.92-2.90 357.22-3.08Q357.52-3.26 357.73-3.41Q357.94-3.56 358.10-3.56L358.10-3.56Q358.38-3.56 358.60-3.22L358.60-3.22L359.64-1.52Q358.72-0.66 357.42-0.17Q356.12 0.32 354.74 0.32Z M375.72-20.58L375.72-20.58Q377.94-20.58 379.73-19.84Q381.52-19.10 382.77-17.74Q384.02-16.38 384.69-14.45Q385.36-12.52 385.36-10.14L385.36-10.14Q385.36-7.74 384.69-5.82Q384.02-3.90 382.77-2.54Q381.52-1.18 379.73-0.45Q377.94 0.28 375.72 0.28L375.72 0.28Q373.50 0.28 371.71-0.45Q369.92-1.18 368.66-2.54Q367.40-3.90 366.72-5.82Q366.04-7.74 366.04-10.14L366.04-10.14Q366.04-12.52 366.72-14.45Q367.40-16.38 368.66-17.74Q369.92-19.10 371.71-19.84Q373.50-20.58 375.72-20.58ZM375.72-2.50L375.72-2.50Q378.72-2.50 380.20-4.51Q381.68-6.52 381.68-10.12L381.68-10.12Q381.68-13.74 380.20-15.76Q378.72-17.78 375.72-17.78L375.72-17.78Q374.20-17.78 373.08-17.26Q371.96-16.74 371.21-15.76Q370.46-14.78 370.09-13.35Q369.72-11.92 369.72-10.12L369.72-10.12Q369.72-8.32 370.09-6.90Q370.46-5.48 371.21-4.51Q371.96-3.54 373.08-3.02Q374.20-2.50 375.72-2.50Z M409.04 0L405.48 0L405.48-20.26L407.52-20.26Q408.10-20.26 408.32-20.04Q408.54-19.82 408.62-19.28L408.62-19.28L408.86-16.12Q409.90-18.24 411.43-19.43Q412.96-20.62 415.02-20.62L415.02-20.62Q415.86-20.62 416.54-20.43Q417.22-20.24 417.80-19.90L417.80-19.90L417.34-17.24Q417.20-16.74 416.72-16.74L416.72-16.74Q416.44-16.74 415.86-16.93Q415.28-17.12 414.24-17.12L414.24-17.12Q412.38-17.12 411.13-16.04Q409.88-14.96 409.04-12.90L409.04-12.90L409.04 0Z M433.62-20.58L433.62-20.58Q435.44-20.58 436.98-19.97Q438.52-19.36 439.64-18.21Q440.76-17.06 441.39-15.37Q442.02-13.68 442.02-11.52L442.02-11.52Q442.02-10.68 441.84-10.40Q441.66-10.12 441.16-10.12L441.16-10.12L427.68-10.12Q427.72-8.20 428.20-6.78Q428.68-5.36 429.52-4.41Q430.36-3.46 431.52-2.99Q432.68-2.52 434.12-2.52L434.12-2.52Q435.46-2.52 436.43-2.83Q437.40-3.14 438.10-3.50Q438.80-3.86 439.27-4.17Q439.74-4.48 440.08-4.48L440.08-4.48Q440.52-4.48 440.76-4.14L440.76-4.14L441.76-2.84Q441.10-2.04 440.18-1.45Q439.26-0.86 438.21-0.48Q437.16-0.10 436.04 0.09Q434.92 0.28 433.82 0.28L433.82 0.28Q431.72 0.28 429.95-0.43Q428.18-1.14 426.89-2.51Q425.60-3.88 424.88-5.90Q424.16-7.92 424.16-10.54L424.16-10.54Q424.16-12.66 424.81-14.50Q425.46-16.34 426.68-17.69Q427.90-19.04 429.66-19.81Q431.42-20.58 433.62-20.58ZM433.70-17.96L433.70-17.96Q431.12-17.96 429.64-16.47Q428.16-14.98 427.80-12.34L427.80-12.34L438.82-12.34Q438.82-13.58 438.48-14.61Q438.14-15.64 437.48-16.39Q436.82-17.14 435.87-17.55Q434.92-17.96 433.70-17.96Z M462.96-18.22L462.16-16.92Q461.92-16.48 461.42-16.48L461.42-16.48Q461.12-16.48 460.74-16.70Q460.36-16.92 459.81-17.19Q459.26-17.46 458.50-17.69Q457.74-17.92 456.70-17.92L456.70-17.92Q455.80-17.92 455.08-17.69Q454.36-17.46 453.85-17.06Q453.34-16.66 453.07-16.13Q452.80-15.60 452.80-14.98L452.80-14.98Q452.80-14.20 453.25-13.68Q453.70-13.16 454.44-12.78Q455.18-12.40 456.12-12.11Q457.06-11.82 458.05-11.49Q459.04-11.16 459.98-10.76Q460.92-10.36 461.66-9.76Q462.40-9.16 462.85-8.29Q463.30-7.42 463.30-6.20L463.30-6.20Q463.30-4.80 462.80-3.61Q462.30-2.42 461.32-1.55Q460.34-0.68 458.92-0.18Q457.50 0.32 455.64 0.32L455.64 0.32Q453.52 0.32 451.80-0.37Q450.08-1.06 448.88-2.14L448.88-2.14L449.72-3.50Q449.88-3.76 450.10-3.90Q450.32-4.04 450.68-4.04L450.68-4.04Q451.04-4.04 451.44-3.76Q451.84-3.48 452.41-3.14Q452.98-2.80 453.79-2.52Q454.60-2.24 455.82-2.24L455.82-2.24Q456.86-2.24 457.64-2.51Q458.42-2.78 458.94-3.24Q459.46-3.70 459.71-4.30Q459.96-4.90 459.96-5.58L459.96-5.58Q459.96-6.42 459.51-6.97Q459.06-7.52 458.32-7.91Q457.58-8.30 456.63-8.59Q455.68-8.88 454.69-9.20Q453.70-9.52 452.75-9.93Q451.80-10.34 451.06-10.96Q450.32-11.58 449.87-12.49Q449.42-13.40 449.42-14.70L449.42-14.70Q449.42-15.86 449.90-16.93Q450.38-18 451.30-18.81Q452.22-19.62 453.56-20.10Q454.90-20.58 456.62-20.58L456.62-20.58Q458.62-20.58 460.21-19.95Q461.80-19.32 462.96-18.22L462.96-18.22Z M480.12-20.58L480.12-20.58Q482.34-20.58 484.13-19.84Q485.92-19.10 487.17-17.74Q488.42-16.38 489.09-14.45Q489.76-12.52 489.76-10.14L489.76-10.14Q489.76-7.74 489.09-5.82Q488.42-3.90 487.17-2.54Q485.92-1.18 484.13-0.45Q482.34 0.28 480.12 0.28L480.12 0.28Q477.90 0.28 476.11-0.45Q474.32-1.18 473.06-2.54Q471.80-3.90 471.12-5.82Q470.44-7.74 470.44-10.14L470.44-10.14Q470.44-12.52 471.12-14.45Q471.80-16.38 473.06-17.74Q474.32-19.10 476.11-19.84Q477.90-20.58 480.12-20.58ZM480.12-2.50L480.12-2.50Q483.12-2.50 484.60-4.51Q486.08-6.52 486.08-10.12L486.08-10.12Q486.08-13.74 484.60-15.76Q483.12-17.78 480.12-17.78L480.12-17.78Q478.60-17.78 477.48-17.26Q476.36-16.74 475.61-15.76Q474.86-14.78 474.49-13.35Q474.12-11.92 474.12-10.12L474.12-10.12Q474.12-8.32 474.49-6.90Q474.86-5.48 475.61-4.51Q476.36-3.54 477.48-3.02Q478.60-2.50 480.12-2.50Z M497.68-20.26L501.24-20.26L501.24-7.34Q501.24-5.04 502.30-3.78Q503.36-2.52 505.50-2.52L505.50-2.52Q507.06-2.52 508.44-3.26Q509.82-4 510.98-5.32L510.98-5.32L510.98-20.26L514.54-20.26L514.54 0L512.42 0Q511.66 0 511.46-0.74L511.46-0.74L511.18-2.92Q509.86-1.46 508.22-0.57Q506.58 0.32 504.46 0.32L504.46 0.32Q502.80 0.32 501.53-0.23Q500.26-0.78 499.40-1.78Q498.54-2.78 498.11-4.20Q497.68-5.62 497.68-7.34L497.68-7.34L497.68-20.26Z M527.96 0L524.40 0L524.40-20.26L526.44-20.26Q527.02-20.26 527.24-20.04Q527.46-19.82 527.54-19.28L527.54-19.28L527.78-16.12Q528.82-18.24 530.35-19.43Q531.88-20.62 533.94-20.62L533.94-20.62Q534.78-20.62 535.46-20.43Q536.14-20.24 536.72-19.90L536.72-19.90L536.26-17.24Q536.12-16.74 535.64-16.74L535.64-16.74Q535.36-16.74 534.78-16.93Q534.20-17.12 533.16-17.12L533.16-17.12Q531.30-17.12 530.05-16.04Q528.80-14.96 527.96-12.90L527.96-12.90L527.96 0Z M559.28-17.94L558.34-16.66Q558.18-16.44 558.02-16.32Q557.86-16.20 557.56-16.20L557.56-16.20Q557.26-16.20 556.91-16.45Q556.56-16.70 556.02-17Q555.48-17.30 554.71-17.55Q553.94-17.80 552.82-17.80L552.82-17.80Q551.34-17.80 550.20-17.27Q549.06-16.74 548.29-15.74Q547.52-14.74 547.13-13.32Q546.74-11.90 546.74-10.14L546.74-10.14Q546.74-8.30 547.16-6.87Q547.58-5.44 548.34-4.47Q549.10-3.50 550.19-2.99Q551.28-2.48 552.64-2.48L552.64-2.48Q553.94-2.48 554.78-2.79Q555.62-3.10 556.18-3.48Q556.74-3.86 557.10-4.17Q557.46-4.48 557.82-4.48L557.82-4.48Q558.28-4.48 558.50-4.14L558.50-4.14L559.50-2.84Q558.18-1.22 556.20-0.47Q554.22 0.28 552.02 0.28L552.02 0.28Q550.12 0.28 548.49-0.42Q546.86-1.12 545.66-2.45Q544.46-3.78 543.77-5.72Q543.08-7.66 543.08-10.14L543.08-10.14Q543.08-12.40 543.71-14.32Q544.34-16.24 545.55-17.63Q546.76-19.02 548.54-19.80Q550.32-20.58 552.62-20.58L552.62-20.58Q554.74-20.58 556.38-19.89Q558.02-19.20 559.28-17.94L559.28-17.94Z M575.22-20.58L575.22-20.58Q577.04-20.58 578.58-19.97Q580.12-19.36 581.24-18.21Q582.36-17.06 582.99-15.37Q583.62-13.68 583.62-11.52L583.62-11.52Q583.62-10.68 583.44-10.40Q583.26-10.12 582.76-10.12L582.76-10.12L569.28-10.12Q569.32-8.20 569.80-6.78Q570.28-5.36 571.12-4.41Q571.96-3.46 573.12-2.99Q574.28-2.52 575.72-2.52L575.72-2.52Q577.06-2.52 578.03-2.83Q579.00-3.14 579.70-3.50Q580.40-3.86 580.87-4.17Q581.34-4.48 581.68-4.48L581.68-4.48Q582.12-4.48 582.36-4.14L582.36-4.14L583.36-2.84Q582.70-2.04 581.78-1.45Q580.86-0.86 579.81-0.48Q578.76-0.10 577.64 0.09Q576.52 0.28 575.42 0.28L575.42 0.28Q573.32 0.28 571.55-0.43Q569.78-1.14 568.49-2.51Q567.20-3.88 566.48-5.90Q565.76-7.92 565.76-10.54L565.76-10.54Q565.76-12.66 566.41-14.50Q567.06-16.34 568.28-17.69Q569.50-19.04 571.26-19.81Q573.02-20.58 575.22-20.58ZM575.30-17.96L575.30-17.96Q572.72-17.96 571.24-16.47Q569.76-14.98 569.40-12.34L569.40-12.34L580.42-12.34Q580.42-13.58 580.08-14.61Q579.74-15.64 579.08-16.39Q578.42-17.14 577.47-17.55Q576.52-17.96 575.30-17.96Z M604.56-18.22L603.76-16.92Q603.52-16.48 603.02-16.48L603.02-16.48Q602.72-16.48 602.34-16.70Q601.96-16.92 601.41-17.19Q600.86-17.46 600.10-17.69Q599.34-17.92 598.30-17.92L598.30-17.92Q597.40-17.92 596.68-17.69Q595.96-17.46 595.45-17.06Q594.94-16.66 594.67-16.13Q594.40-15.60 594.40-14.98L594.40-14.98Q594.40-14.20 594.85-13.68Q595.30-13.16 596.04-12.78Q596.78-12.40 597.72-12.11Q598.66-11.82 599.65-11.49Q600.64-11.16 601.58-10.76Q602.52-10.36 603.26-9.76Q604.00-9.16 604.45-8.29Q604.90-7.42 604.90-6.20L604.90-6.20Q604.90-4.80 604.40-3.61Q603.90-2.42 602.92-1.55Q601.94-0.68 600.52-0.18Q599.10 0.32 597.24 0.32L597.24 0.32Q595.12 0.32 593.40-0.37Q591.68-1.06 590.48-2.14L590.48-2.14L591.32-3.50Q591.48-3.76 591.70-3.90Q591.92-4.04 592.28-4.04L592.28-4.04Q592.64-4.04 593.04-3.76Q593.44-3.48 594.01-3.14Q594.58-2.80 595.39-2.52Q596.20-2.24 597.42-2.24L597.42-2.24Q598.46-2.24 599.24-2.51Q600.02-2.78 600.54-3.24Q601.06-3.70 601.31-4.30Q601.56-4.90 601.56-5.58L601.56-5.58Q601.56-6.42 601.11-6.97Q600.66-7.52 599.92-7.91Q599.18-8.30 598.23-8.59Q597.28-8.88 596.29-9.20Q595.30-9.52 594.35-9.93Q593.40-10.34 592.66-10.96Q591.92-11.58 591.47-12.49Q591.02-13.40 591.02-14.70L591.02-14.70Q591.02-15.86 591.50-16.93Q591.98-18 592.90-18.81Q593.82-19.62 595.16-20.10Q596.50-20.58 598.22-20.58L598.22-20.58Q600.22-20.58 601.81-19.95Q603.40-19.32 604.56-18.22L604.56-18.22Z M629.62 0L626.04 0L626.04-17.22L623.80-17.48Q623.38-17.58 623.11-17.79Q622.84-18 622.84-18.40L622.84-18.40L622.84-19.86L626.04-19.86L626.04-21.82Q626.04-23.56 626.53-24.91Q627.02-26.26 627.93-27.19Q628.84-28.12 630.12-28.60Q631.40-29.08 633.00-29.08L633.00-29.08Q634.36-29.08 635.52-28.68L635.52-28.68L635.44-26.90Q635.42-26.50 635.10-26.42Q634.78-26.34 634.20-26.34L634.20-26.34L633.58-26.34Q632.66-26.34 631.91-26.10Q631.16-25.86 630.62-25.32Q630.08-24.78 629.79-23.90Q629.50-23.02 629.50-21.72L629.50-21.72L629.50-19.86L635.36-19.86L635.36-17.28L629.62-17.28L629.62 0Z M650.92-20.58L650.92-20.58Q653.14-20.58 654.93-19.84Q656.72-19.10 657.97-17.74Q659.22-16.38 659.89-14.45Q660.56-12.52 660.56-10.14L660.56-10.14Q660.56-7.74 659.89-5.82Q659.22-3.90 657.97-2.54Q656.72-1.18 654.93-0.45Q653.14 0.28 650.92 0.28L650.92 0.28Q648.70 0.28 646.91-0.45Q645.12-1.18 643.86-2.54Q642.60-3.90 641.92-5.82Q641.24-7.74 641.24-10.14L641.24-10.14Q641.24-12.52 641.92-14.45Q642.60-16.38 643.86-17.74Q645.12-19.10 646.91-19.84Q648.70-20.58 650.92-20.58ZM650.92-2.50L650.92-2.50Q653.92-2.50 655.40-4.51Q656.88-6.52 656.88-10.12L656.88-10.12Q656.88-13.74 655.40-15.76Q653.92-17.78 650.92-17.78L650.92-17.78Q649.40-17.78 648.28-17.26Q647.16-16.74 646.41-15.76Q645.66-14.78 645.29-13.35Q644.92-11.92 644.92-10.12L644.92-10.12Q644.92-8.32 645.29-6.90Q645.66-5.48 646.41-4.51Q647.16-3.54 648.28-3.02Q649.40-2.50 650.92-2.50Z M672.52 0L668.96 0L668.96-20.26L671.00-20.26Q671.58-20.26 671.80-20.04Q672.02-19.82 672.10-19.28L672.10-19.28L672.34-16.12Q673.38-18.24 674.91-19.43Q676.44-20.62 678.50-20.62L678.50-20.62Q679.34-20.62 680.02-20.43Q680.70-20.24 681.28-19.90L681.28-19.90L680.82-17.24Q680.68-16.74 680.20-16.74L680.20-16.74Q679.92-16.74 679.34-16.93Q678.76-17.12 677.72-17.12L677.72-17.12Q675.86-17.12 674.61-16.04Q673.36-14.96 672.52-12.90L672.52-12.90L672.52 0Z M703.22 0L700.92 0L700.92-29.46L704.50-29.46L704.50-17.34Q705.76-18.80 707.39-19.69Q709.02-20.58 711.12-20.58L711.12-20.58Q712.88-20.58 714.30-19.92Q715.72-19.26 716.72-17.95Q717.72-16.64 718.26-14.71Q718.80-12.78 718.80-10.26L718.80-10.26Q718.80-8.02 718.20-6.09Q717.60-4.16 716.47-2.75Q715.34-1.34 713.71-0.53Q712.08 0.28 710.04 0.28L710.04 0.28Q708.08 0.28 706.71-0.48Q705.34-1.24 704.32-2.60L704.32-2.60L704.14-0.76Q703.98 0 703.22 0L703.22 0ZM709.96-17.74L709.96-17.74Q708.22-17.74 706.91-16.94Q705.60-16.14 704.50-14.68L704.50-14.68L704.50-4.88Q705.46-3.56 706.63-3.02Q707.80-2.48 709.24-2.48L709.24-2.48Q712.08-2.48 713.60-4.50Q715.12-6.52 715.12-10.26L715.12-10.26Q715.12-12.24 714.77-13.66Q714.42-15.08 713.76-15.99Q713.10-16.90 712.14-17.32Q711.18-17.74 709.96-17.74Z M730.72 0L727.16 0L727.16-20.26L729.20-20.26Q729.78-20.26 730.00-20.04Q730.22-19.82 730.30-19.28L730.30-19.28L730.54-16.12Q731.58-18.24 733.11-19.43Q734.64-20.62 736.70-20.62L736.70-20.62Q737.54-20.62 738.22-20.43Q738.90-20.24 739.48-19.90L739.48-19.90L739.02-17.24Q738.88-16.74 738.40-16.74L738.40-16.74Q738.12-16.74 737.54-16.93Q736.96-17.12 735.92-17.12L735.92-17.12Q734.06-17.12 732.81-16.04Q731.56-14.96 730.72-12.90L730.72-12.90L730.72 0Z M747.68-20.26L751.24-20.26L751.24 0L747.68 0L747.68-20.26ZM752.04-26.62L752.04-26.62Q752.04-26.10 751.83-25.65Q751.62-25.20 751.27-24.85Q750.92-24.50 750.46-24.30Q750.00-24.10 749.48-24.10L749.48-24.10Q748.96-24.10 748.51-24.30Q748.06-24.50 747.71-24.85Q747.36-25.20 747.16-25.65Q746.96-26.10 746.96-26.62L746.96-26.62Q746.96-27.14 747.16-27.61Q747.36-28.08 747.71-28.43Q748.06-28.78 748.51-28.98Q748.96-29.18 749.48-29.18L749.48-29.18Q750.00-29.18 750.46-28.98Q750.92-28.78 751.27-28.43Q751.62-28.08 751.83-27.61Q752.04-27.14 752.04-26.62Z M761.92-29.46L765.48-29.46L765.48 0L761.92 0L761.92-29.46Z M776.16-29.46L779.72-29.46L779.72 0L776.16 0L776.16-29.46Z M790.40-20.26L793.96-20.26L793.96 0L790.40 0L790.40-20.26ZM794.76-26.62L794.76-26.62Q794.76-26.10 794.55-25.65Q794.34-25.20 793.99-24.85Q793.64-24.50 793.18-24.30Q792.72-24.10 792.20-24.10L792.20-24.10Q791.68-24.10 791.23-24.30Q790.78-24.50 790.43-24.85Q790.08-25.20 789.88-25.65Q789.68-26.10 789.68-26.62L789.68-26.62Q789.68-27.14 789.88-27.61Q790.08-28.08 790.43-28.43Q790.78-28.78 791.23-28.98Q791.68-29.18 792.20-29.18L792.20-29.18Q792.72-29.18 793.18-28.98Q793.64-28.78 793.99-28.43Q794.34-28.08 794.55-27.61Q794.76-27.14 794.76-26.62Z M819.12-12.96L819.12 0L817.54 0Q817.02 0 816.70-0.16Q816.38-0.32 816.28-0.84L816.28-0.84L815.88-2.72Q815.08-2 814.32-1.43Q813.56-0.86 812.72-0.47Q811.88-0.08 810.93 0.12Q809.98 0.32 808.82 0.32L808.82 0.32Q807.64 0.32 806.61-0.01Q805.58-0.34 804.82-1Q804.06-1.66 803.61-2.67Q803.16-3.68 803.16-5.06L803.16-5.06Q803.16-6.26 803.82-7.37Q804.48-8.48 805.95-9.34Q807.42-10.20 809.80-10.75Q812.18-11.30 815.62-11.38L815.62-11.38L815.62-12.96Q815.62-15.32 814.61-16.53Q813.60-17.74 811.62-17.74L811.62-17.74Q810.32-17.74 809.43-17.41Q808.54-17.08 807.89-16.67Q807.24-16.26 806.77-15.93Q806.30-15.60 805.84-15.60L805.84-15.60Q805.48-15.60 805.21-15.79Q804.94-15.98 804.78-16.26L804.78-16.26L804.14-17.40Q805.82-19.02 807.76-19.82Q809.70-20.62 812.06-20.62L812.06-20.62Q813.76-20.62 815.08-20.06Q816.40-19.50 817.30-18.50Q818.20-17.50 818.66-16.08Q819.12-14.66 819.12-12.96L819.12-12.96ZM809.88-2.18L809.88-2.18Q810.82-2.18 811.60-2.37Q812.38-2.56 813.07-2.91Q813.76-3.26 814.39-3.76Q815.02-4.26 815.62-4.90L815.62-4.90L815.62-9.12Q813.16-9.04 811.44-8.73Q809.72-8.42 808.64-7.92Q807.56-7.42 807.07-6.74Q806.58-6.06 806.58-5.22L806.58-5.22Q806.58-4.42 806.84-3.84Q807.10-3.26 807.54-2.89Q807.98-2.52 808.58-2.35Q809.18-2.18 809.88-2.18Z M832.08 0L828.52 0L828.52-20.26L830.64-20.26Q831.40-20.26 831.60-19.52L831.60-19.52L831.88-17.32Q833.20-18.78 834.83-19.68Q836.46-20.58 838.60-20.58L838.60-20.58Q840.26-20.58 841.53-20.03Q842.80-19.48 843.65-18.47Q844.50-17.46 844.94-16.04Q845.38-14.62 845.38-12.90L845.38-12.90L845.38 0L841.82 0L841.82-12.90Q841.82-15.20 840.77-16.47Q839.72-17.74 837.56-17.74L837.56-17.74Q835.98-17.74 834.61-16.98Q833.24-16.22 832.08-14.92L832.08-14.92L832.08 0Z M860.90 0.32L860.90 0.32Q858.50 0.32 857.21-1.02Q855.92-2.36 855.92-4.88L855.92-4.88L855.92-17.28L853.48-17.28Q853.16-17.28 852.94-17.47Q852.72-17.66 852.72-18.06L852.72-18.06L852.72-19.48L856.04-19.90L856.86-26.16Q856.90-26.46 857.12-26.65Q857.34-26.84 857.68-26.84L857.68-26.84L859.48-26.84L859.48-19.86L865.28-19.86L865.28-17.28L859.48-17.28L859.48-5.12Q859.48-3.84 860.10-3.22Q860.72-2.60 861.70-2.60L861.70-2.60Q862.26-2.60 862.67-2.75Q863.08-2.90 863.38-3.08Q863.68-3.26 863.89-3.41Q864.10-3.56 864.26-3.56L864.26-3.56Q864.54-3.56 864.76-3.22L864.76-3.22L865.80-1.52Q864.88-0.66 863.58-0.17Q862.28 0.32 860.90 0.32Z M891.54 0.32L891.54 0.32Q889.14 0.32 887.85-1.02Q886.56-2.36 886.56-4.88L886.56-4.88L886.56-17.28L884.12-17.28Q883.80-17.28 883.58-17.47Q883.36-17.66 883.36-18.06L883.36-18.06L883.36-19.48L886.68-19.90L887.50-26.16Q887.54-26.46 887.76-26.65Q887.98-26.84 888.32-26.84L888.32-26.84L890.12-26.84L890.12-19.86L895.92-19.86L895.92-17.28L890.12-17.28L890.12-5.12Q890.12-3.84 890.74-3.22Q891.36-2.60 892.34-2.60L892.34-2.60Q892.90-2.60 893.31-2.75Q893.72-2.90 894.02-3.08Q894.32-3.26 894.53-3.41Q894.74-3.56 894.90-3.56L894.90-3.56Q895.18-3.56 895.40-3.22L895.40-3.22L896.44-1.52Q895.52-0.66 894.22-0.17Q892.92 0.32 891.54 0.32Z M907.88 0L904.32 0L904.32-20.26L906.36-20.26Q906.94-20.26 907.16-20.04Q907.38-19.82 907.46-19.28L907.46-19.28L907.70-16.12Q908.74-18.24 910.27-19.43Q911.80-20.62 913.86-20.62L913.86-20.62Q914.70-20.62 915.38-20.43Q916.06-20.24 916.64-19.90L916.64-19.90L916.18-17.24Q916.04-16.74 915.56-16.74L915.56-16.74Q915.28-16.74 914.70-16.93Q914.12-17.12 913.08-17.12L913.08-17.12Q911.22-17.12 909.97-16.04Q908.72-14.96 907.88-12.90L907.88-12.90L907.88 0Z M938.56-12.96L938.56 0L936.98 0Q936.46 0 936.14-0.16Q935.82-0.32 935.72-0.84L935.72-0.84L935.32-2.72Q934.52-2 933.76-1.43Q933.00-0.86 932.16-0.47Q931.32-0.08 930.37 0.12Q929.42 0.32 928.26 0.32L928.26 0.32Q927.08 0.32 926.05-0.01Q925.02-0.34 924.26-1Q923.50-1.66 923.05-2.67Q922.60-3.68 922.60-5.06L922.60-5.06Q922.60-6.26 923.26-7.37Q923.92-8.48 925.39-9.34Q926.86-10.20 929.24-10.75Q931.62-11.30 935.06-11.38L935.06-11.38L935.06-12.96Q935.06-15.32 934.05-16.53Q933.04-17.74 931.06-17.74L931.06-17.74Q929.76-17.74 928.87-17.41Q927.98-17.08 927.33-16.67Q926.68-16.26 926.21-15.93Q925.74-15.60 925.28-15.60L925.28-15.60Q924.92-15.60 924.65-15.79Q924.38-15.98 924.22-16.26L924.22-16.26L923.58-17.40Q925.26-19.02 927.20-19.82Q929.14-20.62 931.50-20.62L931.50-20.62Q933.20-20.62 934.52-20.06Q935.84-19.50 936.74-18.50Q937.64-17.50 938.10-16.08Q938.56-14.66 938.56-12.96L938.56-12.96ZM929.32-2.18L929.32-2.18Q930.26-2.18 931.04-2.37Q931.82-2.56 932.51-2.91Q933.20-3.26 933.83-3.76Q934.46-4.26 935.06-4.90L935.06-4.90L935.06-9.12Q932.60-9.04 930.88-8.73Q929.16-8.42 928.08-7.92Q927.00-7.42 926.51-6.74Q926.02-6.06 926.02-5.22L926.02-5.22Q926.02-4.42 926.28-3.84Q926.54-3.26 926.98-2.89Q927.42-2.52 928.02-2.35Q928.62-2.18 929.32-2.18Z M951.52 0L947.96 0L947.96-20.26L950.08-20.26Q950.84-20.26 951.04-19.52L951.04-19.52L951.32-17.32Q952.64-18.78 954.27-19.68Q955.90-20.58 958.04-20.58L958.04-20.58Q959.70-20.58 960.97-20.03Q962.24-19.48 963.09-18.47Q963.94-17.46 964.38-16.04Q964.82-14.62 964.82-12.90L964.82-12.90L964.82 0L961.26 0L961.26-12.90Q961.26-15.20 960.21-16.47Q959.16-17.74 957.00-17.74L957.00-17.74Q955.42-17.74 954.05-16.98Q952.68-16.22 951.52-14.92L951.52-14.92L951.52 0Z M986.60-18.22L985.80-16.92Q985.56-16.48 985.06-16.48L985.06-16.48Q984.76-16.48 984.38-16.70Q984.00-16.92 983.45-17.19Q982.90-17.46 982.14-17.69Q981.38-17.92 980.34-17.92L980.34-17.92Q979.44-17.92 978.72-17.69Q978.00-17.46 977.49-17.06Q976.98-16.66 976.71-16.13Q976.44-15.60 976.44-14.98L976.44-14.98Q976.44-14.20 976.89-13.68Q977.34-13.16 978.08-12.78Q978.82-12.40 979.76-12.11Q980.70-11.82 981.69-11.49Q982.68-11.16 983.62-10.76Q984.56-10.36 985.30-9.76Q986.04-9.16 986.49-8.29Q986.94-7.42 986.94-6.20L986.94-6.20Q986.94-4.80 986.44-3.61Q985.94-2.42 984.96-1.55Q983.98-0.68 982.56-0.18Q981.14 0.32 979.28 0.32L979.28 0.32Q977.16 0.32 975.44-0.37Q973.72-1.06 972.52-2.14L972.52-2.14L973.36-3.50Q973.52-3.76 973.74-3.90Q973.96-4.04 974.32-4.04L974.32-4.04Q974.68-4.04 975.08-3.76Q975.48-3.48 976.05-3.14Q976.62-2.80 977.43-2.52Q978.24-2.24 979.46-2.24L979.46-2.24Q980.50-2.24 981.28-2.51Q982.06-2.78 982.58-3.24Q983.10-3.70 983.35-4.30Q983.60-4.90 983.60-5.58L983.60-5.58Q983.60-6.42 983.15-6.97Q982.70-7.52 981.96-7.91Q981.22-8.30 980.27-8.59Q979.32-8.88 978.33-9.20Q977.34-9.52 976.39-9.93Q975.44-10.34 974.70-10.96Q973.96-11.58 973.51-12.49Q973.06-13.40 973.06-14.70L973.06-14.70Q973.06-15.86 973.54-16.93Q974.02-18 974.94-18.81Q975.86-19.62 977.20-20.10Q978.54-20.58 980.26-20.58L980.26-20.58Q982.26-20.58 983.85-19.95Q985.44-19.32 986.60-18.22L986.60-18.22Z M1002.38-20.60L1002.38-20.60Q1003.70-20.60 1004.85-20.31Q1006.00-20.02 1006.94-19.46L1006.94-19.46L1012.44-19.46L1012.44-18.14Q1012.44-17.48 1011.60-17.30L1011.60-17.30L1009.30-16.98Q1009.98-15.68 1009.98-14.08L1009.98-14.08Q1009.98-12.60 1009.41-11.39Q1008.84-10.18 1007.83-9.32Q1006.82-8.46 1005.43-8Q1004.04-7.54 1002.38-7.54L1002.38-7.54Q1000.96-7.54 999.70-7.88L999.70-7.88Q999.06-7.48 998.73-7.02Q998.40-6.56 998.40-6.12L998.40-6.12Q998.40-5.40 998.98-5.03Q999.56-4.66 1000.52-4.50Q1001.48-4.34 1002.70-4.30Q1003.92-4.26 1005.19-4.17Q1006.46-4.08 1007.68-3.86Q1008.90-3.64 1009.86-3.14Q1010.82-2.64 1011.40-1.76Q1011.98-0.88 1011.98 0.52L1011.98 0.52Q1011.98 1.82 1011.33 3.04Q1010.68 4.26 1009.46 5.21Q1008.24 6.16 1006.48 6.73Q1004.72 7.30 1002.50 7.30L1002.50 7.30Q1000.28 7.30 998.61 6.86Q996.94 6.42 995.84 5.68Q994.74 4.94 994.19 3.97Q993.64 3 993.64 1.94L993.64 1.94Q993.64 0.44 994.59-0.61Q995.54-1.66 997.20-2.28L997.20-2.28Q996.34-2.68 995.83-3.35Q995.32-4.02 995.32-5.14L995.32-5.14Q995.32-5.58 995.48-6.05Q995.64-6.52 995.97-6.98Q996.30-7.44 996.78-7.86Q997.26-8.28 997.90-8.60L997.90-8.60Q996.40-9.44 995.55-10.83Q994.70-12.22 994.70-14.08L994.70-14.08Q994.70-15.56 995.27-16.77Q995.84-17.98 996.86-18.83Q997.88-19.68 999.29-20.14Q1000.70-20.60 1002.38-20.60ZM1008.70 1.10L1008.70 1.10Q1008.70 0.34 1008.28-0.12Q1007.86-0.58 1007.14-0.83Q1006.42-1.08 1005.48-1.20Q1004.54-1.32 1003.50-1.37Q1002.46-1.42 1001.38-1.48Q1000.30-1.54 999.32-1.70L999.32-1.70Q998.18-1.16 997.47-0.38Q996.76 0.40 996.76 1.48L996.76 1.48Q996.76 2.16 997.11 2.75Q997.46 3.34 998.18 3.77Q998.90 4.20 999.99 4.45Q1001.08 4.70 1002.56 4.70L1002.56 4.70Q1004.00 4.70 1005.14 4.44Q1006.28 4.18 1007.07 3.70Q1007.86 3.22 1008.28 2.56Q1008.70 1.90 1008.70 1.10ZM1002.38-9.90L1002.38-9.90Q1003.46-9.90 1004.29-10.20Q1005.12-10.50 1005.68-11.04Q1006.24-11.58 1006.52-12.33Q1006.80-13.08 1006.80-13.98L1006.80-13.98Q1006.80-15.84 1005.67-16.94Q1004.54-18.04 1002.38-18.04L1002.38-18.04Q1000.24-18.04 999.11-16.94Q997.98-15.84 997.98-13.98L997.98-13.98Q997.98-13.08 998.27-12.33Q998.56-11.58 999.12-11.04Q999.68-10.50 1000.50-10.20Q1001.32-9.90 1002.38-9.90Z M1028.02-20.58L1028.02-20.58Q1029.84-20.58 1031.38-19.97Q1032.92-19.36 1034.04-18.21Q1035.16-17.06 1035.79-15.37Q1036.42-13.68 1036.42-11.52L1036.42-11.52Q1036.42-10.68 1036.24-10.40Q1036.06-10.12 1035.56-10.12L1035.56-10.12L1022.08-10.12Q1022.12-8.20 1022.60-6.78Q1023.08-5.36 1023.92-4.41Q1024.76-3.46 1025.92-2.99Q1027.08-2.52 1028.52-2.52L1028.52-2.52Q1029.86-2.52 1030.83-2.83Q1031.80-3.14 1032.50-3.50Q1033.20-3.86 1033.67-4.17Q1034.14-4.48 1034.48-4.48L1034.48-4.48Q1034.92-4.48 1035.16-4.14L1035.16-4.14L1036.16-2.84Q1035.50-2.04 1034.58-1.45Q1033.66-0.86 1032.61-0.48Q1031.56-0.10 1030.44 0.09Q1029.32 0.28 1028.22 0.28L1028.22 0.28Q1026.12 0.28 1024.35-0.43Q1022.58-1.14 1021.29-2.51Q1020.00-3.88 1019.28-5.90Q1018.56-7.92 1018.56-10.54L1018.56-10.54Q1018.56-12.66 1019.21-14.50Q1019.86-16.34 1021.08-17.69Q1022.30-19.04 1024.06-19.81Q1025.82-20.58 1028.02-20.58ZM1028.10-17.96L1028.10-17.96Q1025.52-17.96 1024.04-16.47Q1022.56-14.98 1022.20-12.34L1022.20-12.34L1033.22-12.34Q1033.22-13.58 1032.88-14.61Q1032.54-15.64 1031.88-16.39Q1031.22-17.14 1030.27-17.55Q1029.32-17.96 1028.10-17.96Z M1048.52 0L1044.96 0L1044.96-20.26L1047.08-20.26Q1047.84-20.26 1048.04-19.52L1048.04-19.52L1048.32-17.32Q1049.64-18.78 1051.27-19.68Q1052.90-20.58 1055.04-20.58L1055.04-20.58Q1056.70-20.58 1057.97-20.03Q1059.24-19.48 1060.09-18.47Q1060.94-17.46 1061.38-16.04Q1061.82-14.62 1061.82-12.90L1061.82-12.90L1061.82 0L1058.26 0L1058.26-12.90Q1058.26-15.20 1057.21-16.47Q1056.16-17.74 1054.00-17.74L1054.00-17.74Q1052.42-17.74 1051.05-16.98Q1049.68-16.22 1048.52-14.92L1048.52-14.92L1048.52 0Z M1087.58 0L1085.46 0Q1084.70 0 1084.50-0.74L1084.50-0.74L1084.18-3.20Q1082.88-1.62 1081.21-0.67Q1079.54 0.28 1077.38 0.28L1077.38 0.28Q1075.64 0.28 1074.22-0.39Q1072.80-1.06 1071.80-2.36Q1070.80-3.66 1070.26-5.60Q1069.72-7.54 1069.72-10.06L1069.72-10.06Q1069.72-12.30 1070.32-14.23Q1070.92-16.16 1072.05-17.58Q1073.18-19 1074.80-19.81Q1076.42-20.62 1078.48-20.62L1078.48-20.62Q1080.34-20.62 1081.66-19.99Q1082.98-19.36 1084.02-18.22L1084.02-18.22L1084.02-29.46L1087.58-29.46L1087.58 0ZM1078.56-2.60L1078.56-2.60Q1080.30-2.60 1081.61-3.40Q1082.92-4.20 1084.02-5.66L1084.02-5.66L1084.02-15.46Q1083.04-16.78 1081.87-17.31Q1080.70-17.84 1079.28-17.84L1079.28-17.84Q1076.44-17.84 1074.92-15.82Q1073.40-13.80 1073.40-10.06L1073.40-10.06Q1073.40-8.08 1073.74-6.67Q1074.08-5.26 1074.74-4.35Q1075.40-3.44 1076.36-3.02Q1077.32-2.60 1078.56-2.60Z M1105.58-20.58L1105.58-20.58Q1107.40-20.58 1108.94-19.97Q1110.48-19.36 1111.60-18.21Q1112.72-17.06 1113.35-15.37Q1113.98-13.68 1113.98-11.52L1113.98-11.52Q1113.98-10.68 1113.80-10.40Q1113.62-10.12 1113.12-10.12L1113.12-10.12L1099.64-10.12Q1099.68-8.20 1100.16-6.78Q1100.64-5.36 1101.48-4.41Q1102.32-3.46 1103.48-2.99Q1104.64-2.52 1106.08-2.52L1106.08-2.52Q1107.42-2.52 1108.39-2.83Q1109.36-3.14 1110.06-3.50Q1110.76-3.86 1111.23-4.17Q1111.70-4.48 1112.04-4.48L1112.04-4.48Q1112.48-4.48 1112.72-4.14L1112.72-4.14L1113.72-2.84Q1113.06-2.04 1112.14-1.45Q1111.22-0.86 1110.17-0.48Q1109.12-0.10 1108 0.09Q1106.88 0.28 1105.78 0.28L1105.78 0.28Q1103.68 0.28 1101.91-0.43Q1100.14-1.14 1098.85-2.51Q1097.56-3.88 1096.84-5.90Q1096.12-7.92 1096.12-10.54L1096.12-10.54Q1096.12-12.66 1096.77-14.50Q1097.42-16.34 1098.64-17.69Q1099.86-19.04 1101.62-19.81Q1103.38-20.58 1105.58-20.58ZM1105.66-17.96L1105.66-17.96Q1103.08-17.96 1101.60-16.47Q1100.12-14.98 1099.76-12.34L1099.76-12.34L1110.78-12.34Q1110.78-13.58 1110.44-14.61Q1110.10-15.64 1109.44-16.39Q1108.78-17.14 1107.83-17.55Q1106.88-17.96 1105.66-17.96Z M1126.08 0L1122.52 0L1122.52-20.26L1124.56-20.26Q1125.14-20.26 1125.36-20.04Q1125.58-19.82 1125.66-19.28L1125.66-19.28L1125.90-16.12Q1126.94-18.24 1128.47-19.43Q1130.00-20.62 1132.06-20.62L1132.06-20.62Q1132.90-20.62 1133.58-20.43Q1134.26-20.24 1134.84-19.90L1134.84-19.90L1134.38-17.24Q1134.24-16.74 1133.76-16.74L1133.76-16.74Q1133.48-16.74 1132.90-16.93Q1132.32-17.12 1131.28-17.12L1131.28-17.12Q1129.42-17.12 1128.17-16.04Q1126.92-14.96 1126.08-12.90L1126.08-12.90L1126.08 0Z M1157.92 0L1154.36 0L1154.36-20.26L1156.48-20.26Q1157.24-20.26 1157.44-19.52L1157.44-19.52L1157.70-17.44Q1158.82-18.82 1160.21-19.70Q1161.60-20.58 1163.44-20.58L1163.44-20.58Q1165.50-20.58 1166.77-19.44Q1168.04-18.30 1168.60-16.36L1168.60-16.36Q1169.02-17.46 1169.71-18.26Q1170.40-19.06 1171.26-19.58Q1172.12-20.10 1173.09-20.34Q1174.06-20.58 1175.06-20.58L1175.06-20.58Q1176.66-20.58 1177.91-20.07Q1179.16-19.56 1180.03-18.58Q1180.90-17.60 1181.36-16.17Q1181.82-14.74 1181.82-12.90L1181.82-12.90L1181.82 0L1178.26 0L1178.26-12.90Q1178.26-15.28 1177.22-16.51Q1176.18-17.74 1174.20-17.74L1174.20-17.74Q1173.32-17.74 1172.53-17.43Q1171.74-17.12 1171.14-16.52Q1170.54-15.92 1170.19-15.01Q1169.84-14.10 1169.84-12.90L1169.84-12.90L1169.84 0L1166.28 0L1166.28-12.90Q1166.28-15.34 1165.30-16.54Q1164.32-17.74 1162.44-17.74L1162.44-17.74Q1161.12-17.74 1159.99-17.03Q1158.86-16.32 1157.92-15.10L1157.92-15.10L1157.92 0Z M1191.60-20.26L1195.16-20.26L1195.16 0L1191.60 0L1191.60-20.26ZM1195.96-26.62L1195.96-26.62Q1195.96-26.10 1195.75-25.65Q1195.54-25.20 1195.19-24.85Q1194.84-24.50 1194.38-24.30Q1193.92-24.10 1193.40-24.10L1193.40-24.10Q1192.88-24.10 1192.43-24.30Q1191.98-24.50 1191.63-24.85Q1191.28-25.20 1191.08-25.65Q1190.88-26.10 1190.88-26.62L1190.88-26.62Q1190.88-27.14 1191.08-27.61Q1191.28-28.08 1191.63-28.43Q1191.98-28.78 1192.43-28.98Q1192.88-29.18 1193.40-29.18L1193.40-29.18Q1193.92-29.18 1194.38-28.98Q1194.84-28.78 1195.19-28.43Q1195.54-28.08 1195.75-27.61Q1195.96-27.14 1195.96-26.62Z M1209 0L1205.44 0L1205.44-20.26L1207.56-20.26Q1208.32-20.26 1208.52-19.52L1208.52-19.52L1208.80-17.32Q1210.12-18.78 1211.75-19.68Q1213.38-20.58 1215.52-20.58L1215.52-20.58Q1217.18-20.58 1218.45-20.03Q1219.72-19.48 1220.57-18.47Q1221.42-17.46 1221.86-16.04Q1222.30-14.62 1222.30-12.90L1222.30-12.90L1222.30 0L1218.74 0L1218.74-12.90Q1218.74-15.20 1217.69-16.47Q1216.64-17.74 1214.48-17.74L1214.48-17.74Q1212.90-17.74 1211.53-16.98Q1210.16-16.22 1209-14.92L1209-14.92L1209 0Z M1248.06 0L1245.94 0Q1245.18 0 1244.98-0.74L1244.98-0.74L1244.66-3.20Q1243.36-1.62 1241.69-0.67Q1240.02 0.28 1237.86 0.28L1237.86 0.28Q1236.12 0.28 1234.70-0.39Q1233.28-1.06 1232.28-2.36Q1231.28-3.66 1230.74-5.60Q1230.20-7.54 1230.20-10.06L1230.20-10.06Q1230.20-12.30 1230.80-14.23Q1231.40-16.16 1232.53-17.58Q1233.66-19 1235.28-19.81Q1236.90-20.62 1238.96-20.62L1238.96-20.62Q1240.82-20.62 1242.14-19.99Q1243.46-19.36 1244.50-18.22L1244.50-18.22L1244.50-29.46L1248.06-29.46L1248.06 0ZM1239.04-2.60L1239.04-2.60Q1240.78-2.60 1242.09-3.40Q1243.40-4.20 1244.50-5.66L1244.50-5.66L1244.50-15.46Q1243.52-16.78 1242.35-17.31Q1241.18-17.84 1239.76-17.84L1239.76-17.84Q1236.92-17.84 1235.40-15.82Q1233.88-13.80 1233.88-10.06L1233.88-10.06Q1233.88-8.08 1234.22-6.67Q1234.56-5.26 1235.22-4.35Q1235.88-3.44 1236.84-3.02Q1237.80-2.60 1239.04-2.60Z M1270.44-18.22L1269.64-16.92Q1269.40-16.48 1268.90-16.48L1268.90-16.48Q1268.60-16.48 1268.22-16.70Q1267.84-16.92 1267.29-17.19Q1266.74-17.46 1265.98-17.69Q1265.22-17.92 1264.18-17.92L1264.18-17.92Q1263.28-17.92 1262.56-17.69Q1261.84-17.46 1261.33-17.06Q1260.82-16.66 1260.55-16.13Q1260.28-15.60 1260.28-14.98L1260.28-14.98Q1260.28-14.20 1260.73-13.68Q1261.18-13.16 1261.92-12.78Q1262.66-12.40 1263.60-12.11Q1264.54-11.82 1265.53-11.49Q1266.52-11.16 1267.46-10.76Q1268.40-10.36 1269.14-9.76Q1269.88-9.16 1270.33-8.29Q1270.78-7.42 1270.78-6.20L1270.78-6.20Q1270.78-4.80 1270.28-3.61Q1269.78-2.42 1268.80-1.55Q1267.82-0.68 1266.40-0.18Q1264.98 0.32 1263.12 0.32L1263.12 0.32Q1261 0.32 1259.28-0.37Q1257.56-1.06 1256.36-2.14L1256.36-2.14L1257.20-3.50Q1257.36-3.76 1257.58-3.90Q1257.80-4.04 1258.16-4.04L1258.16-4.04Q1258.52-4.04 1258.92-3.76Q1259.32-3.48 1259.89-3.14Q1260.46-2.80 1261.27-2.52Q1262.08-2.24 1263.30-2.24L1263.30-2.24Q1264.34-2.24 1265.12-2.51Q1265.90-2.78 1266.42-3.24Q1266.94-3.70 1267.19-4.30Q1267.44-4.90 1267.44-5.58L1267.44-5.58Q1267.44-6.42 1266.99-6.97Q1266.54-7.52 1265.80-7.91Q1265.06-8.30 1264.11-8.59Q1263.16-8.88 1262.17-9.20Q1261.18-9.52 1260.23-9.93Q1259.28-10.34 1258.54-10.96Q1257.80-11.58 1257.35-12.49Q1256.90-13.40 1256.90-14.70L1256.90-14.70Q1256.90-15.86 1257.38-16.93Q1257.86-18 1258.78-18.81Q1259.70-19.62 1261.04-20.10Q1262.38-20.58 1264.10-20.58L1264.10-20.58Q1266.10-20.58 1267.69-19.95Q1269.28-19.32 1270.44-18.22L1270.44-18.22Z M1278.24-2.20L1278.24-2.20Q1278.24-2.72 1278.43-3.18Q1278.62-3.64 1278.95-3.98Q1279.28-4.32 1279.74-4.52Q1280.20-4.72 1280.72-4.72L1280.72-4.72Q1281.24-4.72 1281.70-4.52Q1282.16-4.32 1282.50-3.98Q1282.84-3.64 1283.03-3.18Q1283.22-2.72 1283.22-2.20L1283.22-2.20Q1283.22-1.66 1283.03-1.21Q1282.84-0.76 1282.50-0.42Q1282.16-0.08 1281.70 0.11Q1281.24 0.30 1280.72 0.30L1280.72 0.30Q1280.20 0.30 1279.74 0.11Q1279.28-0.08 1278.95-0.42Q1278.62-0.76 1278.43-1.21Q1278.24-1.66 1278.24-2.20Z"/></g>
</svg>
</g><g opacity="1" transform="rotate(0 329.3446 796.5716)">
<svg width="899.311" height="48" x="329.3446" y="796.5716" version="1.1" preserveAspectRatio="none" viewBox="1.08 -28.76 699.9599999999999 37.36">
  <g transform="matrix(1 0 0 1 0 0)" class="aD6z1nYkhcolor"><path id="id-D6z1nYkh35" d="M24.32-26.40L24.32-21.96L15.48-21.96L15.48 0L9.96 0L9.96-21.96L1.08-21.96L1.08-26.40L24.32-26.40Z M39.72-20.40Q42.96-20.40 44.94-18.52Q46.92-16.64 46.92-13.12L46.92-13.12L46.92 0L41.44 0L41.44-11.52Q41.44-16.08 37.88-16.08L37.88-16.08Q35.96-16.08 34.62-14.72Q33.28-13.36 33.28-10.56L33.28-10.56L33.28 0L27.80 0L27.80-28.76L33.28-28.76L33.28-16.60Q34.20-18.52 35.86-19.46Q37.52-20.40 39.72-20.40L39.72-20.40Z M71.24-10.08Q71.24-8.96 71.08-7.92L71.08-7.92L56.92-7.92Q57.76-3.68 61.92-3.68L61.92-3.68Q63.64-3.68 64.76-4.32Q65.88-4.96 66.32-6.16L66.32-6.16L70.80-4.52Q69.84-2.12 67.58-0.86Q65.32 0.40 61.92 0.40L61.92 0.40Q56.96 0.40 54.24-2.34Q51.52-5.08 51.52-10L51.52-10Q51.52-14.92 54.16-17.66Q56.80-20.40 61.60-20.40L61.60-20.40Q66.24-20.40 68.74-17.72Q71.24-15.04 71.24-10.08L71.24-10.08ZM61.56-16.36Q59.56-16.36 58.38-15.20Q57.20-14.04 56.88-11.76L56.88-11.76L66.20-11.76Q65.88-14 64.68-15.18Q63.48-16.36 61.56-16.36L61.56-16.36Z M99.72-26.40Q104.32-26.40 106.88-24.18Q109.44-21.96 109.44-17.92L109.44-17.92Q109.44-14 106.88-11.80Q104.32-9.60 99.72-9.60L99.72-9.60L94.16-9.60L94.16 0L88.64 0L88.64-26.40L99.72-26.40ZM98.88-13.88Q101.44-13.88 102.64-14.90Q103.84-15.92 103.84-17.96L103.84-17.96Q103.84-20 102.64-21Q101.44-22 98.88-22L98.88-22L94.16-22L94.16-13.88L98.88-13.88Z M125.24-20.40Q126.64-20.40 127.40-19.96L127.40-19.96L126.72-15.16Q125.80-15.76 124.20-15.76L124.20-15.76Q122.24-15.76 120.82-14.34Q119.40-12.92 119.40-10.36L119.40-10.36L119.40 0L113.92 0L113.92-20L118.68-20L119.04-16.08Q120.68-20.40 125.24-20.40L125.24-20.40Z M133.56-22.88Q130.16-22.88 130.16-25.80L130.16-25.80Q130.16-28.76 133.56-28.76L133.56-28.76Q136.96-28.76 136.96-25.80L136.96-25.80Q136.96-22.88 133.56-22.88L133.56-22.88ZM136.28-20L136.28 0L130.80 0L130.80-20L136.28-20Z M155.20-20L160.88-20L153.28 0L146.96 0L139.36-20L145.24-20L150.16-3.84L155.20-20Z M166.68-22.88Q163.28-22.88 163.28-25.80L163.28-25.80Q163.28-28.76 166.68-28.76L166.68-28.76Q170.08-28.76 170.08-25.80L170.08-25.80Q170.08-22.88 166.68-22.88L166.68-22.88ZM169.40-20L169.40 0L163.92 0L163.92-20L169.40-20Z M180.60-28.76L180.60-6.36Q180.60-4.92 181.02-4.36Q181.44-3.80 182.56-3.80L182.56-3.80Q183.24-3.80 183.74-3.90Q184.24-4 184.92-4.24L184.92-4.24L184.44-0.44Q183.80-0.04 182.76 0.18Q181.72 0.40 180.72 0.40L180.72 0.40Q177.80 0.40 176.46-1.02Q175.12-2.44 175.12-5.56L175.12-5.56L175.12-28.76L180.60-28.76Z M206.64-10.08Q206.64-8.96 206.48-7.92L206.48-7.92L192.32-7.92Q193.16-3.68 197.32-3.68L197.32-3.68Q199.04-3.68 200.16-4.32Q201.28-4.96 201.72-6.16L201.72-6.16L206.20-4.52Q205.24-2.12 202.98-0.86Q200.72 0.40 197.32 0.40L197.32 0.40Q192.36 0.40 189.64-2.34Q186.92-5.08 186.92-10L186.92-10Q186.92-14.92 189.56-17.66Q192.20-20.40 197.00-20.40L197.00-20.40Q201.64-20.40 204.14-17.72Q206.64-15.04 206.64-10.08L206.64-10.08ZM196.96-16.36Q194.96-16.36 193.78-15.20Q192.60-14.04 192.28-11.76L192.28-11.76L201.60-11.76Q201.28-14 200.08-15.18Q198.88-16.36 196.96-16.36L196.96-16.36Z M223.40-3.76Q226.68-3.76 228.46-2.32Q230.24-0.88 230.24 1.80L230.24 1.80Q230.24 5 227.28 6.80Q224.32 8.60 219.48 8.60L219.48 8.60Q214.48 8.60 212.06 7.28Q209.64 5.96 209.64 3.68L209.64 3.68Q209.64 2.32 210.56 1.32Q211.48 0.32 213.28-0.12L213.28-0.12Q211.92-0.68 211.12-1.70Q210.32-2.72 210.32-4.12L210.32-4.12Q210.32-5.56 211.16-6.60Q212.00-7.64 213.48-8.16L213.48-8.16Q211.96-9.04 211.16-10.42Q210.36-11.80 210.36-13.60L210.36-13.60Q210.36-16.76 212.82-18.58Q215.28-20.40 219.52-20.40L219.52-20.40Q221.68-20.40 223.56-19.88L223.56-19.88Q224.08-22.24 225.58-23.58Q227.08-24.92 229.64-24.76L229.64-24.76L230.36-20.84Q230.08-20.88 229.52-20.88L229.52-20.88Q228.04-20.88 227.06-20.36Q226.08-19.84 225.68-18.96L225.68-18.96Q227.16-18.08 227.94-16.72Q228.72-15.36 228.72-13.60L228.72-13.60Q228.72-10.48 226.26-8.66Q223.80-6.84 219.52-6.84L219.52-6.84Q217.56-6.84 215.92-7.20L215.92-7.20Q214.36-6.80 214.36-5.40L214.36-5.40Q214.36-4.60 214.96-4.18Q215.56-3.76 216.64-3.76L216.64-3.76L223.40-3.76ZM219.52-16.96Q217.92-16.96 216.90-16.04Q215.88-15.12 215.88-13.64L215.88-13.64Q215.88-12.12 216.90-11.20Q217.92-10.28 219.52-10.28L219.52-10.28Q221.16-10.28 222.18-11.20Q223.20-12.12 223.20-13.64L223.20-13.64Q223.20-15.12 222.18-16.04Q221.16-16.96 219.52-16.96L219.52-16.96ZM219.92 4.84Q222.72 4.84 224.24 4.14Q225.76 3.44 225.76 2.36L225.76 2.36Q225.76 1.52 225.06 1.10Q224.36 0.68 222.76 0.68L222.76 0.68L217.32 0.68Q214.00 0.68 214.00 2.48L214.00 2.48Q214.00 3.60 215.48 4.22Q216.96 4.84 219.92 4.84L219.92 4.84Z M252.32-10.08Q252.32-8.96 252.16-7.92L252.16-7.92L238-7.92Q238.84-3.68 243-3.68L243-3.68Q244.72-3.68 245.84-4.32Q246.96-4.96 247.40-6.16L247.40-6.16L251.88-4.52Q250.92-2.12 248.66-0.86Q246.40 0.40 243 0.40L243 0.40Q238.04 0.40 235.32-2.34Q232.60-5.08 232.60-10L232.60-10Q232.60-14.92 235.24-17.66Q237.88-20.40 242.68-20.40L242.68-20.40Q247.32-20.40 249.82-17.72Q252.32-15.04 252.32-10.08L252.32-10.08ZM242.64-16.36Q240.64-16.36 239.46-15.20Q238.28-14.04 237.96-11.76L237.96-11.76L247.28-11.76Q246.96-14 245.76-15.18Q244.56-16.36 242.64-16.36L242.64-16.36Z M275.24-4.44L290.08-4.44L290.08 0L269.72 0L269.72-26.40L289.52-26.40L289.52-21.96L275.24-21.96L275.24-15.40L286.48-15.40L286.48-11.16L275.24-11.16L275.24-4.44Z M302.24 0.40Q295.56 0.40 292.96-3.44L292.96-3.44L296.16-6.72Q296.96-5 298.46-4.30Q299.96-3.60 302.16-3.60L302.16-3.60Q303.92-3.60 304.88-4.08Q305.84-4.56 305.84-5.40L305.84-5.40Q305.84-6.08 304.94-6.56Q304.04-7.04 301.84-7.48L301.84-7.48Q297.24-8.40 295.38-9.90Q293.52-11.40 293.52-13.96L293.52-13.96Q293.52-15.64 294.56-17.12Q295.60-18.60 297.64-19.50Q299.68-20.40 302.52-20.40L302.52-20.40Q305.88-20.40 307.96-19.38Q310.04-18.36 311.44-16.16L311.44-16.16L308.04-13.28Q307.16-14.88 305.86-15.64Q304.56-16.40 302.60-16.40L302.60-16.40Q300.96-16.40 299.98-15.84Q299.00-15.28 299.00-14.48L299.00-14.48Q299.00-13.64 299.96-13.08Q300.92-12.52 303.36-12.04L303.36-12.04Q307.72-11.16 309.54-9.74Q311.36-8.32 311.36-5.80L311.36-5.80Q311.36-3 308.98-1.30Q306.60 0.40 302.24 0.40L302.24 0.40Z M324.80-20.40Q328.76-20.40 330.96-18.80Q333.16-17.20 333.96-14.52L333.96-14.52L328.84-12.68Q328.12-16.32 324.96-16.32L324.96-16.32Q322.60-16.32 321.34-14.70Q320.08-13.08 320.08-9.96L320.08-9.96Q320.08-6.84 321.36-5.26Q322.64-3.68 324.92-3.68L324.92-3.68Q328.44-3.68 329.08-7.24L329.08-7.24L334.04-5.64Q333.40-2.88 331.06-1.24Q328.72 0.40 325 0.40L325 0.40Q320.04 0.40 317.32-2.34Q314.60-5.08 314.60-10L314.60-10Q314.60-14.92 317.30-17.66Q320-20.40 324.80-20.40L324.80-20.40Z M356.68-3.32Q357.52-3.32 358.04-3.48L358.04-3.48L357.64-0.16Q356.52 0.40 355.04 0.40L355.04 0.40Q351.20 0.40 350.44-2.60L350.44-2.60Q349.56-1.12 347.72-0.36Q345.88 0.40 343.36 0.40L343.36 0.40Q340.44 0.40 338.80-0.92Q337.16-2.24 337.16-4.72L337.16-4.72Q337.16-9.60 344.96-11.04L344.96-11.04L349.76-11.96L349.76-12.92Q349.76-14.52 348.86-15.46Q347.96-16.40 346.36-16.40L346.36-16.40Q344.52-16.40 343.36-15.60Q342.20-14.80 341.76-13L341.76-13L337.40-14.84Q338.04-17.44 340.28-18.92Q342.52-20.40 346.12-20.40L346.12-20.40Q350.40-20.40 352.80-18.54Q355.20-16.68 355.20-13.04L355.20-13.04L355.20-4.84Q355.20-4.04 355.56-3.68Q355.92-3.32 356.68-3.32L356.68-3.32ZM345.08-3.32Q346.84-3.32 348.30-4.18Q349.76-5.04 349.76-6.52L349.76-6.52L349.76-8.60L345.48-7.64Q344.12-7.32 343.46-6.78Q342.80-6.24 342.80-5.28L342.80-5.28Q342.80-4.32 343.40-3.82Q344-3.32 345.08-3.32L345.08-3.32Z M366.76-28.76L366.76-6.36Q366.76-4.92 367.18-4.36Q367.60-3.80 368.72-3.80L368.72-3.80Q369.40-3.80 369.90-3.90Q370.40-4 371.08-4.24L371.08-4.24L370.60-0.44Q369.96-0.04 368.92 0.18Q367.88 0.40 366.88 0.40L366.88 0.40Q363.96 0.40 362.62-1.02Q361.28-2.44 361.28-5.56L361.28-5.56L361.28-28.76L366.76-28.76Z M392.44-3.32Q393.28-3.32 393.80-3.48L393.80-3.48L393.40-0.16Q392.28 0.40 390.80 0.40L390.80 0.40Q386.96 0.40 386.20-2.60L386.20-2.60Q385.32-1.12 383.48-0.36Q381.64 0.40 379.12 0.40L379.12 0.40Q376.20 0.40 374.56-0.92Q372.92-2.24 372.92-4.72L372.92-4.72Q372.92-9.60 380.72-11.04L380.72-11.04L385.52-11.96L385.52-12.92Q385.52-14.52 384.62-15.46Q383.72-16.40 382.12-16.40L382.12-16.40Q380.28-16.40 379.12-15.60Q377.96-14.80 377.52-13L377.52-13L373.16-14.84Q373.80-17.44 376.04-18.92Q378.28-20.40 381.88-20.40L381.88-20.40Q386.16-20.40 388.56-18.54Q390.96-16.68 390.96-13.04L390.96-13.04L390.96-4.84Q390.96-4.04 391.32-3.68Q391.68-3.32 392.44-3.32L392.44-3.32ZM380.84-3.32Q382.60-3.32 384.06-4.18Q385.52-5.04 385.52-6.52L385.52-6.52L385.52-8.60L381.24-7.64Q379.88-7.32 379.22-6.78Q378.56-6.24 378.56-5.28L378.56-5.28Q378.56-4.32 379.16-3.82Q379.76-3.32 380.84-3.32L380.84-3.32Z M409.20-4.88L410.04-1.24Q409.08-0.48 407.62-0.04Q406.16 0.40 404.56 0.40L404.56 0.40Q397.88 0.40 397.88-5.64L397.88-5.64L397.88-15.92L394.24-15.92L394.24-20L397.88-20L397.88-24.60L403.36-26.12L403.36-20L409.84-20L409.84-15.92L403.36-15.92L403.36-6.52Q403.36-3.76 406.12-3.76L406.12-3.76Q407.88-3.76 409.20-4.88L409.20-4.88Z M416.24-22.88Q412.84-22.88 412.84-25.80L412.84-25.80Q412.84-28.76 416.24-28.76L416.24-28.76Q419.64-28.76 419.64-25.80L419.64-25.80Q419.64-22.88 416.24-22.88L416.24-22.88ZM418.96-20L418.96 0L413.48 0L413.48-20L418.96-20Z M433.96-20.40Q438.80-20.40 441.50-17.64Q444.20-14.88 444.20-10L444.20-10Q444.20-5.12 441.50-2.36Q438.80 0.40 433.96 0.40L433.96 0.40Q429.12 0.40 426.42-2.36Q423.72-5.12 423.72-10L423.72-10Q423.72-14.88 426.42-17.64Q429.12-20.40 433.96-20.40L433.96-20.40ZM433.96-16.32Q431.64-16.32 430.42-14.74Q429.20-13.16 429.20-10L429.20-10Q429.20-6.84 430.42-5.26Q431.64-3.68 433.96-3.68L433.96-3.68Q436.28-3.68 437.50-5.26Q438.72-6.84 438.72-10L438.72-10Q438.72-13.16 437.50-14.74Q436.28-16.32 433.96-16.32L433.96-16.32Z M460.84-20.40Q464.08-20.40 466.06-18.52Q468.04-16.64 468.04-13.12L468.04-13.12L468.04 0L462.56 0L462.56-11.52Q462.56-16.08 459.00-16.08L459.00-16.08Q457.08-16.08 455.74-14.72Q454.40-13.36 454.40-10.56L454.40-10.56L454.40 0L448.92 0L448.92-20L453.84-20L454.00-16.44Q455.00-18.40 456.76-19.40Q458.52-20.40 460.84-20.40L460.84-20.40Z M506.24-21.96L492.00-21.96L492.00-15.28L503.24-15.28L503.24-10.80L492.00-10.80L492.00 0L486.48 0L486.48-26.40L506.24-26.40L506.24-21.96Z M517.52-20.40Q522.36-20.40 525.06-17.64Q527.76-14.88 527.76-10L527.76-10Q527.76-5.12 525.06-2.36Q522.36 0.40 517.52 0.40L517.52 0.40Q512.68 0.40 509.98-2.36Q507.28-5.12 507.28-10L507.28-10Q507.28-14.88 509.98-17.64Q512.68-20.40 517.52-20.40L517.52-20.40ZM517.52-16.32Q515.20-16.32 513.98-14.74Q512.76-13.16 512.76-10L512.76-10Q512.76-6.84 513.98-5.26Q515.20-3.68 517.52-3.68L517.52-3.68Q519.84-3.68 521.06-5.26Q522.28-6.84 522.28-10L522.28-10Q522.28-13.16 521.06-14.74Q519.84-16.32 517.52-16.32L517.52-16.32Z M546-20L551.48-20L551.48 0L546.60 0L546.40-3.44Q544.48 0.40 539.40 0.40L539.40 0.40Q536.16 0.40 534.26-1.34Q532.36-3.08 532.36-6.76L532.36-6.76L532.36-20L537.84-20L537.84-8.16Q537.84-5.84 538.72-4.88Q539.60-3.92 541.32-3.92L541.32-3.92Q543.40-3.92 544.70-5.26Q546-6.60 546-9.28L546-9.28L546-20Z M569.16-20.40Q572.40-20.40 574.38-18.52Q576.36-16.64 576.36-13.12L576.36-13.12L576.36 0L570.88 0L570.88-11.52Q570.88-16.08 567.32-16.08L567.32-16.08Q565.40-16.08 564.06-14.72Q562.72-13.36 562.72-10.56L562.72-10.56L562.72 0L557.24 0L557.24-20L562.16-20L562.32-16.44Q563.32-18.40 565.08-19.40Q566.84-20.40 569.16-20.40L569.16-20.40Z M595.88-28.76L601.36-28.76L601.36 0L596.48 0L596.24-3.72Q595.36-1.84 593.62-0.72Q591.88 0.40 589.64 0.40L589.64 0.40Q585.64 0.40 583.36-2.34Q581.08-5.08 581.08-9.96L581.08-9.96Q581.08-14.88 583.36-17.64Q585.64-20.40 589.64-20.40L589.64-20.40Q591.80-20.40 593.40-19.42Q595-18.44 595.88-16.72L595.88-16.72L595.88-28.76ZM591.24-3.80Q593.40-3.80 594.64-5.36Q595.88-6.92 595.88-9.80L595.88-9.80L595.88-10.20Q595.88-13.04 594.64-14.62Q593.40-16.20 591.24-16.20L591.24-16.20Q589.04-16.20 587.80-14.60Q586.56-13 586.56-10L586.56-10Q586.56-7 587.80-5.40Q589.04-3.80 591.24-3.80L591.24-3.80Z M625.44-3.32Q626.28-3.32 626.80-3.48L626.80-3.48L626.40-0.16Q625.28 0.40 623.80 0.40L623.80 0.40Q619.96 0.40 619.20-2.60L619.20-2.60Q618.32-1.12 616.48-0.36Q614.64 0.40 612.12 0.40L612.12 0.40Q609.20 0.40 607.56-0.92Q605.92-2.24 605.92-4.72L605.92-4.72Q605.92-9.60 613.72-11.04L613.72-11.04L618.52-11.96L618.52-12.92Q618.52-14.52 617.62-15.46Q616.72-16.40 615.12-16.40L615.12-16.40Q613.28-16.40 612.12-15.60Q610.96-14.80 610.52-13L610.52-13L606.16-14.84Q606.80-17.44 609.04-18.92Q611.28-20.40 614.88-20.40L614.88-20.40Q619.16-20.40 621.56-18.54Q623.96-16.68 623.96-13.04L623.96-13.04L623.96-4.84Q623.96-4.04 624.32-3.68Q624.68-3.32 625.44-3.32L625.44-3.32ZM613.84-3.32Q615.60-3.32 617.06-4.18Q618.52-5.04 618.52-6.52L618.52-6.52L618.52-8.60L614.24-7.64Q612.88-7.32 612.22-6.78Q611.56-6.24 611.56-5.28L611.56-5.28Q611.56-4.32 612.16-3.82Q612.76-3.32 613.84-3.32L613.84-3.32Z M642.20-4.88L643.04-1.24Q642.08-0.48 640.62-0.04Q639.16 0.40 637.56 0.40L637.56 0.40Q630.88 0.40 630.88-5.64L630.88-5.64L630.88-15.92L627.24-15.92L627.24-20L630.88-20L630.88-24.60L636.36-26.12L636.36-20L642.84-20L642.84-15.92L636.36-15.92L636.36-6.52Q636.36-3.76 639.12-3.76L639.12-3.76Q640.88-3.76 642.20-4.88L642.20-4.88Z M649.24-22.88Q645.84-22.88 645.84-25.80L645.84-25.80Q645.84-28.76 649.24-28.76L649.24-28.76Q652.64-28.76 652.64-25.80L652.64-25.80Q652.64-22.88 649.24-22.88L649.24-22.88ZM651.96-20L651.96 0L646.48 0L646.48-20L651.96-20Z M666.96-20.40Q671.80-20.40 674.50-17.64Q677.20-14.88 677.20-10L677.20-10Q677.20-5.12 674.50-2.36Q671.80 0.40 666.96 0.40L666.96 0.40Q662.12 0.40 659.42-2.36Q656.72-5.12 656.72-10L656.72-10Q656.72-14.88 659.42-17.64Q662.12-20.40 666.96-20.40L666.96-20.40ZM666.96-16.32Q664.64-16.32 663.42-14.74Q662.20-13.16 662.20-10L662.20-10Q662.20-6.84 663.42-5.26Q664.64-3.68 666.96-3.68L666.96-3.68Q669.28-3.68 670.50-5.26Q671.72-6.84 671.72-10L671.72-10Q671.72-13.16 670.50-14.74Q669.28-16.32 666.96-16.32L666.96-16.32Z M693.84-20.40Q697.08-20.40 699.06-18.52Q701.04-16.64 701.04-13.12L701.04-13.12L701.04 0L695.56 0L695.56-11.52Q695.56-16.08 692-16.08L692-16.08Q690.08-16.08 688.74-14.72Q687.40-13.36 687.40-10.56L687.40-10.56L687.40 0L681.92 0L681.92-20L686.84-20L687-16.44Q688-18.40 689.76-19.40Q691.52-20.40 693.84-20.40L693.84-20.40Z"/></g>
</svg>
</g><g opacity="1" transform="rotate(0 605.2819 507.2509)">
<svg width="347.4366" height="226.4098" x="605.2819" y="507.2509" version="1.1" preserveAspectRatio="none" viewBox="19.99941062927246 47.867000579833984 160.0010528564453 104.26600646972656">
  <g transform="matrix(1 0 0 1 0 0)" ><g><path d="M96.11 92.548l-22.382 47.439-.462.971-4.521 9.583h81.874a7.43 7.43 0 006.721-4.26l20.352-43.13c2.326-4.93-1.27-10.603-6.721-10.603H96.11z" data-color="1" class="aLgOaV3zRcolors-0"></path><path d="M150.619 152.133H68.746a1.592 1.592 0 01-1.44-2.272l27.365-57.993a1.593 1.593 0 011.44-.913h74.86a8.98 8.98 0 017.621 4.193 8.978 8.978 0 01.539 8.682l-20.352 43.13a9.06 9.06 0 01-8.16 5.173zm-79.362-3.184h79.363a5.865 5.865 0 005.281-3.348l20.352-43.13a5.811 5.811 0 00-.349-5.618 5.81 5.81 0 00-4.932-2.713H97.119l-25.862 54.809z" data-color="2" class="aLgOaV3zRcolors-1"></path><path d="M171.115 92.546l-22.382 47.439H62.149l22.382-47.439h86.584z" data-color="3" class="aLgOaV3zRcolors-2"></path><path d="M148.733 141.576H62.148a1.592 1.592 0 01-1.44-2.272L83.09 91.865a1.593 1.593 0 011.44-.913h86.584a1.592 1.592 0 011.44 2.272l-22.382 47.439a1.589 1.589 0 01-1.439.913zm-84.073-3.184h83.064l20.88-44.255H85.54l-20.88 44.255z" data-color="2" class="aLgOaV3zRcolors-1"></path><path d="M157.6 99.425l-15.697 33.271H75.855l15.696-33.271H157.6z" data-color="3" class="aLgOaV3zRcolors-2"></path><path d="M141.903 134.288H75.855a1.592 1.592 0 01-1.44-2.272l15.696-33.271a1.593 1.593 0 011.44-.913H157.6a1.592 1.592 0 011.44 2.272l-15.697 33.271a1.593 1.593 0 01-1.44.913zm-63.537-3.184h62.528l14.195-30.087H92.56l-14.194 30.087z" data-color="2" class="aLgOaV3zRcolors-1"></path><path d="M62.899 49.459H88.81c15.205 0 27.53 12.326 27.53 27.53v43.523l-15.993-15.993H62.899c-15.204 0-27.53-12.326-27.53-27.53.001-15.205 12.326-27.53 27.53-27.53z" data-color="3" class="aLgOaV3zRcolors-2"></path><path d="M116.341 122.104c-.415 0-.822-.162-1.126-.466l-15.527-15.526H62.9c-16.058 0-29.122-13.064-29.122-29.122S46.841 47.867 62.9 47.867h25.91c16.058 0 29.122 13.064 29.122 29.122v43.523a1.593 1.593 0 01-1.591 1.592zM62.9 51.051c-14.302 0-25.938 11.636-25.938 25.938s11.636 25.938 25.938 25.938h37.448c.422 0 .827.168 1.126.466l13.275 13.275v-39.68c0-14.302-11.636-25.938-25.938-25.938H62.9z" data-color="2" class="aLgOaV3zRcolors-1"></path><path d="M97.472 76.819a3.926 3.926 0 11-7.852 0 3.926 3.926 0 017.852 0z" data-color="1" class="aLgOaV3zRcolors-0"></path><path d="M93.546 82.336a5.524 5.524 0 01-5.518-5.518 5.524 5.524 0 015.518-5.518 5.524 5.524 0 015.518 5.518 5.525 5.525 0 01-5.518 5.518zm0-7.851c-1.287 0-2.334 1.047-2.334 2.334s1.047 2.334 2.334 2.334 2.334-1.047 2.334-2.334-1.048-2.334-2.334-2.334z" data-color="2" class="aLgOaV3zRcolors-1"></path><path d="M79.781 76.819a3.926 3.926 0 11-7.852 0 3.926 3.926 0 017.852 0z" data-color="1" class="aLgOaV3zRcolors-0"></path><path d="M75.855 82.336a5.524 5.524 0 01-5.518-5.518 5.524 5.524 0 015.518-5.518 5.524 5.524 0 015.518 5.518 5.525 5.525 0 01-5.518 5.518zm0-7.851c-1.287 0-2.334 1.047-2.334 2.334s1.047 2.334 2.334 2.334 2.334-1.047 2.334-2.334-1.048-2.334-2.334-2.334z" data-color="2" class="aLgOaV3zRcolors-1"></path><path d="M62.09 76.819a3.926 3.926 0 11-7.852 0 3.926 3.926 0 017.852 0z" data-color="1" class="aLgOaV3zRcolors-0"></path><path d="M58.164 82.336a5.524 5.524 0 01-5.517-5.518 5.524 5.524 0 015.517-5.518 5.524 5.524 0 015.518 5.518 5.525 5.525 0 01-5.518 5.518zm0-7.851c-1.287 0-2.333 1.047-2.333 2.334s1.046 2.334 2.333 2.334 2.334-1.047 2.334-2.334-1.048-2.334-2.334-2.334z" data-color="2" class="aLgOaV3zRcolors-1"></path><path d="M96.995 140.003l-2.32 4.922a9.79 9.79 0 01-8.856 5.616H28.987c-5.418 0-8.993-5.638-6.683-10.538h74.691z" data-color="3" class="aLgOaV3zRcolors-2"></path><path d="M85.82 152.133H28.986c-3.092 0-5.928-1.559-7.584-4.171s-1.858-5.841-.54-8.638a1.591 1.591 0 011.44-.913h74.692a1.592 1.592 0 011.44 2.271l-2.32 4.922a11.424 11.424 0 01-10.294 6.529zm-62.418-10.538a5.763 5.763 0 00.689 4.662 5.767 5.767 0 004.895 2.692H85.82a8.232 8.232 0 007.416-4.703l1.25-2.652H23.402z" data-color="2" class="aLgOaV3zRcolors-1"></path></g></g>
</svg>
</g></svg>